<svg width="460" height="130" viewBox="0 0 460 130" fill="none" xmlns="http://www.w3.org/2000/svg">
    <g clip-path="url(#clip0_1_31)">
        <g clip-path="url(#clip1_1_31)">
            <rect width="130" height="130" fill="#5E9EFF"/>
            <path d="M98.96 102.112C98.96 103.733 98.4053 105.141 97.296 106.336C96.1867 107.445 94.7787 108 93.072 108H89.616C87.9947 108 86.5867 107.445 85.392 106.336C84.2827 105.141 83.728 103.733 83.728 102.112V63.584C83.728 63.2427 83.5573 63.0293 83.216 62.944C82.96 62.8587 82.7467 62.944 82.576 63.2L70.288 88.544C70.032 89.2267 69.4773 89.824 68.624 90.336C67.7707 90.848 66.96 91.2747 66.192 91.616C65.5093 91.872 65.168 92 65.168 92C62.5227 92 60.7733 90.848 59.92 88.544L47.632 63.2C47.5467 62.944 47.3333 62.8587 46.992 62.944C46.6507 63.0293 46.48 63.2427 46.48 63.584V102.112C46.48 103.733 45.8827 105.141 44.688 106.336C43.5787 107.445 42.2133 108 40.592 108H37.008C35.3867 108 33.9787 107.445 32.784 106.336C31.6747 105.141 31.12 103.733 31.12 102.112V27.36C31.12 25.6533 31.6747 24.2453 32.784 23.136C33.9787 22.0267 35.3867 21.472 37.008 21.472H40.72C43.1093 21.472 44.8587 22.5813 45.968 24.8C46.3947 25.7387 47.248 27.5733 48.528 30.304C49.8933 32.9493 51.472 36.1067 53.264 39.776C55.056 43.4453 56.8907 47.328 58.768 51.424C60.7307 55.4347 62.608 59.2747 64.4 62.944C64.5707 63.2853 64.784 63.456 65.04 63.456C65.3813 63.456 65.6373 63.2853 65.808 62.944L84.112 24.8C85.2213 22.5813 87.0133 21.472 89.488 21.472H93.072C94.7787 21.472 96.1867 22.0267 97.296 23.136C98.4053 24.2453 98.96 25.6533 98.96 27.36V102.112Z"
                  fill="white"/>
        </g>
        <g clip-path="url(#clip2_1_31)">
            <rect width="130" height="130" transform="translate(165)" fill="#FFBF49"/>
            <path d="M257.744 104.584C257.744 107.656 256.976 110.472 255.44 113.032C253.904 115.592 251.856 117.64 249.296 119.176C246.736 120.712 243.92 121.48 240.848 121.48H216.272C213.2 121.48 210.341 120.712 207.696 119.176C205.136 117.64 203.088 115.592 201.552 113.032C200.016 110.472 199.248 107.656 199.248 104.584V95.368C199.248 93.7467 199.803 92.3813 200.912 91.272C202.107 90.0773 203.515 89.48 205.136 89.48H208.592C210.213 89.48 211.579 90.0773 212.688 91.272C213.883 92.3813 214.48 93.7467 214.48 95.368V104.584C214.48 105.011 214.651 105.395 214.992 105.736C215.419 106.077 215.845 106.248 216.272 106.248H240.848C241.957 106.248 242.512 105.693 242.512 104.584V96.136C242.512 95.368 242.085 94.7707 241.232 94.344L210.512 82.952C207.099 81.672 204.368 79.5387 202.32 76.552C200.272 73.5653 199.248 70.3227 199.248 66.824V54.792C199.248 52.8293 199.589 50.824 200.272 48.776C200.869 47.752 200.869 46.7707 200.272 45.832C200.016 44.8933 199.76 43.912 199.504 42.888C199.333 41.864 199.248 40.84 199.248 39.816V31.496C199.248 28.3387 200.016 25.48 201.552 22.92C203.088 20.36 205.136 18.312 207.696 16.776C210.341 15.24 213.2 14.472 216.272 14.472H240.848C243.92 14.472 246.736 15.24 249.296 16.776C251.856 18.312 253.904 20.36 255.44 22.92C256.976 25.48 257.744 28.3387 257.744 31.496V40.712C257.744 42.3333 257.147 43.7413 255.952 44.936C254.843 46.0453 253.477 46.6 251.856 46.6H248.4C246.779 46.6 245.371 46.0453 244.176 44.936C243.067 43.7413 242.512 42.3333 242.512 40.712V31.496C242.512 30.3013 241.957 29.704 240.848 29.704H216.272C215.845 29.704 215.419 29.8747 214.992 30.216C214.651 30.5573 214.48 30.984 214.48 31.496V39.816C214.48 40.6693 214.907 41.224 215.76 41.48L246.608 53C249.936 54.28 252.624 56.4133 254.672 59.4C256.72 62.3013 257.744 65.5867 257.744 69.256V81.16C257.744 82.184 257.616 83.208 257.36 84.232C257.189 85.256 256.976 86.2373 256.72 87.176C256.208 88.2 256.165 89.1813 256.592 90.12C256.933 91.0587 257.189 92.04 257.36 93.064C257.616 94.088 257.744 95.112 257.744 96.136V104.584ZM242.512 77.064V69.256C242.512 68.232 242.085 67.592 241.232 67.336L216.144 57.864C215.803 57.6933 215.419 57.736 214.992 57.992C214.651 58.248 214.48 58.5893 214.48 59.016V66.824C214.48 67.7627 214.907 68.36 215.76 68.616L240.976 78.088C241.403 78.1733 241.744 78.1307 242 77.96C242.341 77.704 242.512 77.4053 242.512 77.064Z"
                  fill="white"/>
        </g>
        <g clip-path="url(#clip3_1_31)">
            <rect width="130" height="130" transform="translate(330)" fill="#FF5E60"/>
            <path d="M428.672 102.112C428.672 103.733 428.075 105.141 426.88 106.336C425.771 107.445 424.448 108 422.912 108H378.88C377.344 108 375.979 107.445 374.784 106.336C373.675 105.141 373.12 103.733 373.12 102.112V27.36C373.12 25.6533 373.675 24.2453 374.784 23.136C375.979 22.0267 377.344 21.472 378.88 21.472H382.464C384.085 21.472 385.451 22.0267 386.56 23.136C387.755 24.2453 388.352 25.6533 388.352 27.36V91.232C388.352 92.3413 388.864 92.896 389.888 92.896H422.912C424.448 92.896 425.771 93.4507 426.88 94.56C428.075 95.6693 428.672 97.0773 428.672 98.784V102.112Z"
                  fill="white"/>
        </g>
    </g>
    <defs>
        <clipPath id="clip0_1_31">
            <rect width="460" height="130" fill="white"/>
        </clipPath>
        <clipPath id="clip1_1_31">
            <rect width="130" height="130" fill="white"/>
        </clipPath>
        <clipPath id="clip2_1_31">
            <rect width="130" height="130" fill="white" transform="translate(165)"/>
        </clipPath>
        <clipPath id="clip3_1_31">
            <rect width="130" height="130" fill="white" transform="translate(330)"/>
        </clipPath>
    </defs>
</svg>
